<svg xmlns="http://www.w3.org/2000/svg" viewBox="0 0 200 160" width="200" height="160">
  <rect width="200" height="160" fill="#faf8f5"/>
  
  <!-- person -->
  <circle cx="52" cy="38" r="16" fill="#f5d5c0" stroke="#56534f" stroke-width="1.8"/>
  <path d="M52 54 C52 66 42 76 38 90 M52 54 C52 66 62 76 66 90" stroke="#56534f" stroke-width="1.8" stroke-linecap="round" fill="none"/>
  <path d="M32 68 L52 60 L72 68" stroke="#56534f" stroke-width="1.8" stroke-linecap="round" fill="none"/>

  <!-- 名刺1 -->
  <rect x="96" y="28" width="44" height="28" rx="3" fill="white" stroke="#316042" stroke-width="1.8" transform="rotate(-8,118,42)"/>
  <!-- 名刺2 -->
  <rect x="100" y="50" width="44" height="28" rx="3" fill="white" stroke="#56534f" stroke-width="1.8" transform="rotate(4,122,64)"/>
  <!-- 名刺3 -->
  <rect x="98" y="72" width="44" height="28" rx="3" fill="white" stroke="#ff5b3d" stroke-width="1.8" transform="rotate(-3,120,86)"/>
  <text x="120" y="46" text-anchor="middle" font-size="8" fill="#316042" font-family="sans-serif">A社</text>
  <text x="124" y="69" text-anchor="middle" font-size="8" fill="#56534f" font-family="sans-serif">B社</text>
  <text x="122" y="90" text-anchor="middle" font-size="8" fill="#ff5b3d" font-family="sans-serif">C社</text>
    <text x="82" y="28" text-anchor="middle" font-size="22" font-weight="900" fill="#ff5b3d" font-family="sans-serif">?</text>
  <!-- 解決badge -->
  <circle cx="158" cy="105" r="18" fill="#ff5b3d"/>
  <text x="158" y="110" text-anchor="middle" font-size="10" font-weight="bold" fill="white" font-family="sans-serif">解決</text>

</svg>