<svg xmlns="http://www.w3.org/2000/svg" viewBox="0 0 200 160" width="200" height="160">
  <rect width="200" height="160" fill="#faf8f5"/>
  
  <!-- person -->
  <circle cx="52" cy="38" r="16" fill="#f5d5c0" stroke="#56534f" stroke-width="1.8"/>
  <path d="M52 54 C52 66 42 76 38 90 M52 54 C52 66 62 76 66 90" stroke="#56534f" stroke-width="1.8" stroke-linecap="round" fill="none"/>
  <path d="M32 68 L52 60 L72 68" stroke="#56534f" stroke-width="1.8" stroke-linecap="round" fill="none"/>

  <!-- 書類2枚 -->
  <rect x="96" y="35" width="38" height="48" rx="3" fill="white" stroke="#56534f" stroke-width="1.8" transform="rotate(-6,115,59)"/>
  <rect x="106" y="38" width="38" height="48" rx="3" fill="#fff9f7" stroke="#316042" stroke-width="1.8" transform="rotate(4,125,62)"/>
  <line x1="112" y1="52" x2="138" y2="52" stroke="#56534f" stroke-width="1.2" transform="rotate(4,125,62)"/>
  <line x1="112" y1="62" x2="138" y2="62" stroke="#56534f" stroke-width="1.2" transform="rotate(4,125,62)"/>
  <!-- 虫眼鏡 -->
  <circle cx="148" cy="42" r="12" fill="none" stroke="#ff5b3d" stroke-width="2.5"/>
  <line x1="157" y1="51" x2="166" y2="62" stroke="#ff5b3d" stroke-width="2.5" stroke-linecap="round"/>
    <text x="82" y="28" text-anchor="middle" font-size="22" font-weight="900" fill="#ff5b3d" font-family="sans-serif">?</text>
  <!-- 解決badge -->
  <circle cx="152" cy="100" r="18" fill="#ff5b3d"/>
  <text x="152" y="105" text-anchor="middle" font-size="10" font-weight="bold" fill="white" font-family="sans-serif">解決</text>

</svg>